<?xml version="1.0" encoding="UTF-8"?>
<svg id="Layer_2" data-name="Layer 2" xmlns="http://www.w3.org/2000/svg" xmlns:xlink="http://www.w3.org/1999/xlink" viewBox="0 0 734.18 218.85">
  <defs>
    <style>
      .cls-1, .cls-2 {
        fill: #fff;
      }

      .cls-3 {
        fill: #738d5e;
      }

      .cls-2, .cls-4 {
        stroke: #fff;
        stroke-miterlimit: 10;
      }

      .cls-5 {
        fill: #71a2cd;
      }

      .cls-6 {
        fill: url(#linear-gradient);
      }

      .cls-4 {
        font-family: Corbel-Bold, Corbel;
        font-size: 125px;
        font-weight: 700;
        letter-spacing: -.1em;
      }
    </style>
    <linearGradient id="linear-gradient" x1="0" y1="109.27" x2="252.36" y2="109.27" gradientUnits="userSpaceOnUse">
      <stop offset="0" stop-color="#738d5e"/>
      <stop offset=".23" stop-color="#72958a"/>
      <stop offset=".58" stop-color="#71a2cd"/>
    </linearGradient>
  </defs>
  <g id="Layer_2-2" data-name="Layer 2">
    <polygon class="cls-6" points="252.36 0 138.21 197.71 126.18 218.55 126.07 218.35 125.52 217.43 125.52 217.42 118.99 206.1 116.59 201.93 0 0 252.36 0"/>
    <g>
      <path class="cls-1" d="m87.4,82.36c22.25-4.94,76.45-.36,76.45-.36l1.17-5.43c-53.56-5.08-79.22-.61-79.22-.61l1.6,6.4Z"/>
      <path class="cls-1" d="m177.91,72.59s-28.25-2.83-48.41-3.01c-20.16-.18-51.94,1.36-51.94,1.36l-6.5,2.13s-.03.93,1.25,1.16,11.02.63,11.02.63c0,0,4.79-4.28,79.44-.51l13.14,1.94,4.93-1.43s1.28-.23,1.2-.73-1.02-1.03-1.02-1.03l-3.12-.51Z"/>
      <path class="cls-1" d="m88.01,62.09l-2.49.57,1.98,1.55s.28,3.57.5,3.54,20.22-1.94,40.34-1.55c20.12.39,37.58,2.13,37.58,2.13l.82-4.13,2.09-.64-1.87-.9s-61.74-4.79-78.97-.57Z"/>
      <path class="cls-2" d="m112.69,43.13l.23-1.59c.01-.1.05-.19.11-.27l.62-.81c.1-.13.24-.21.39-.23l8.39-1.16c.25-.04.46-.23.5-.48l.52-2.82c.05-.26.27-.46.54-.49.72-.06,2.32-.2,5.09-.45.31-.03.58.18.64.48h0s.92,3.83.92,3.83c.06.25.27.43.53.45.63.05,2.2.2,6.1.59,1.18.12,1.79.24,2.09.32.18.05.33.19.4.36l.76,2.01c.15.39-.14.81-.56.81-1.65-.02-13.58-1.74-27.37-.61"/>
      <path class="cls-1" d="m86.26,62.65c6.95-5.19,14.91-8.59,23.08-11.27,0,0,.54-.16.54-.16.11-.03-.08.03-.13.07-.07.04-.16.14-.18.18l.16-.15c.45-.39.97-.86.85-1.52-.36-1.07-1.31-2.02-1.89-3.03-.4-.5-.46-1.1-.63-1.69.41.35.74.84,1.22,1.07,2.29,1.35,4.81,2.88,3.58,5.97-.17.45-.51.9-.77,1.28-.16.31-.72.73-.97.83-7.84,3.97-16.07,7.21-24.85,8.43h0Z"/>
      <path class="cls-1" d="m155.94,90.24c0,.4-20.52,1.55-29.14,1.55-16.09,0-29.14-.69-29.14-1.55s13.04-1.55,29.14-1.55c8.05,0,15.33.17,20.6.45,5.27.28,8.53.67,8.53,1.09Z"/>
      <path class="cls-1" d="m126.07,218.35c.02.16.04.33.05.5h-.85l.25-1.42h0s-6.53-11.33-6.53-11.33c-.38,2.17-.76,4.38-1.14,6.63l-1.26-10.8-12.97-110.75-.13-1.11s.13.36.38,1.13c1.77,5.47,9.5,31.7,18.37,96.98v.02c1.17,8.56,2.35,17.8,3.54,27.76h0c.1.8.19,1.58.29,2.39Z"/>
      <path class="cls-1" d="m118.57,218.85h-1.75c.34-2.07.68-4.11,1.03-6.12l.72,6.12Z"/>
      <path class="cls-1" d="m148.16,90.1l-.16.88-2.02,11.36h0s-6.86,38.59-6.86,38.59v.03l-13.34,75h0s-.26,1.46-.26,1.46l-6.53-11.32c1.1-6.28,2.19-12.25,3.25-17.9v-.02c13.08-69.53,23.22-92.65,25.46-97.19.3-.62.46-.89.46-.89Z"/>
      <path class="cls-1" d="m150.75,91.39c-1.78,3.26-3.25,8.62-3.93,11.23-2.37,9.41-3.74,19.03-4.77,28.67-1.63,14.24-2.45,31.93-3.2,52.21-.21,4.73-.35,9.46-.64,14.21-.94-6.77-1.45-14.42-1.8-21.29-.48-11.88-.32-23.78.74-35.63,0,0,0,.17,0,.17,0-.31.08-.66.22-.94l-.21.88c0-.31.08-.65.22-.93l-.21.88c0-.32.08-.67.22-.95l-.2.71c.32-3.26.66-6.53,1.09-9.78,1.41-9.76,3.34-19.51,6.87-28.74.9-2.42,3.25-7.86,5.61-10.69h0Z"/>
      <path class="cls-1" d="m126.8,37.88c-3.39-9.26-3.41-21.42,0-30.68,3.41,9.26,3.39,21.42,0,30.68h0Z"/>
    </g>
    <text class="cls-4" transform="translate(209.75 148.22)"><tspan class="cls-3" x="0" y="0">ZSE</tspan><tspan class="cls-5" x="180.76" y="0" xml:space="preserve"> BRIEF</tspan></text>
  </g>
</svg>